<mxfile host="app.diagrams.net" agent="Mozilla/5.0 (Windows NT 10.0; Win64; x64) AppleWebKit/537.36 (KHTML, like Gecko) Chrome/135.0.0.0 Safari/537.36" version="26.2.14">
  <diagram name="Page-1" id="jxvs517c__NyZ6tOhT3Q">
    <mxGraphModel dx="2037" dy="1110" grid="1" gridSize="10" guides="1" tooltips="1" connect="1" arrows="1" fold="1" page="1" pageScale="1" pageWidth="850" pageHeight="1100" math="0" shadow="0">
      <root>
        <mxCell id="0" />
        <mxCell id="1" parent="0" />
        <mxCell id="JWnPOJ0pys3tOjK4fjJ6-43" value="" style="rounded=0;whiteSpace=wrap;html=1;" vertex="1" parent="1">
          <mxGeometry x="110" y="40" width="630" height="1030" as="geometry" />
        </mxCell>
        <mxCell id="JWnPOJ0pys3tOjK4fjJ6-23" value="" style="edgeStyle=orthogonalEdgeStyle;rounded=0;orthogonalLoop=1;jettySize=auto;html=1;strokeWidth=3;" edge="1" parent="1" source="JWnPOJ0pys3tOjK4fjJ6-1" target="JWnPOJ0pys3tOjK4fjJ6-4">
          <mxGeometry relative="1" as="geometry" />
        </mxCell>
        <mxCell id="JWnPOJ0pys3tOjK4fjJ6-25" style="edgeStyle=orthogonalEdgeStyle;rounded=0;orthogonalLoop=1;jettySize=auto;html=1;entryX=0.5;entryY=0;entryDx=0;entryDy=0;strokeWidth=3;" edge="1" parent="1" source="JWnPOJ0pys3tOjK4fjJ6-1" target="JWnPOJ0pys3tOjK4fjJ6-5">
          <mxGeometry relative="1" as="geometry">
            <mxPoint x="450" y="170" as="targetPoint" />
            <Array as="points">
              <mxPoint x="425" y="160" />
              <mxPoint x="640" y="160" />
            </Array>
          </mxGeometry>
        </mxCell>
        <mxCell id="JWnPOJ0pys3tOjK4fjJ6-1" value="&lt;font style=&quot;font-size: 18px;&quot;&gt;SITE 1&lt;/font&gt;" style="rounded=0;whiteSpace=wrap;html=1;fillColor=#dae8fc;strokeColor=#6c8ebf;" vertex="1" parent="1">
          <mxGeometry x="365" y="60" width="120" height="80" as="geometry" />
        </mxCell>
        <mxCell id="JWnPOJ0pys3tOjK4fjJ6-2" value="&lt;font style=&quot;&quot;&gt;&lt;span style=&quot;font-size: 18px;&quot;&gt;ZONE 1&lt;/span&gt;&lt;br&gt;&lt;font style=&quot;font-size: 15px;&quot;&gt;Receiving&lt;/font&gt;&lt;/font&gt;" style="rounded=0;whiteSpace=wrap;html=1;fillColor=#d5e8d4;strokeColor=#82b366;" vertex="1" parent="1">
          <mxGeometry x="140" y="220" width="120" height="80" as="geometry" />
        </mxCell>
        <mxCell id="JWnPOJ0pys3tOjK4fjJ6-26" style="edgeStyle=orthogonalEdgeStyle;rounded=0;orthogonalLoop=1;jettySize=auto;html=1;strokeWidth=3;" edge="1" parent="1" source="JWnPOJ0pys3tOjK4fjJ6-4" target="JWnPOJ0pys3tOjK4fjJ6-6">
          <mxGeometry relative="1" as="geometry">
            <Array as="points">
              <mxPoint x="425" y="320" />
              <mxPoint x="200" y="320" />
            </Array>
          </mxGeometry>
        </mxCell>
        <mxCell id="JWnPOJ0pys3tOjK4fjJ6-27" style="edgeStyle=orthogonalEdgeStyle;rounded=0;orthogonalLoop=1;jettySize=auto;html=1;entryX=0.5;entryY=0;entryDx=0;entryDy=0;strokeWidth=3;" edge="1" parent="1" source="JWnPOJ0pys3tOjK4fjJ6-4" target="JWnPOJ0pys3tOjK4fjJ6-7">
          <mxGeometry relative="1" as="geometry">
            <mxPoint x="425" y="320.0000000000001" as="targetPoint" />
          </mxGeometry>
        </mxCell>
        <mxCell id="JWnPOJ0pys3tOjK4fjJ6-28" style="edgeStyle=orthogonalEdgeStyle;rounded=0;orthogonalLoop=1;jettySize=auto;html=1;entryX=0.5;entryY=0;entryDx=0;entryDy=0;strokeWidth=3;" edge="1" parent="1" source="JWnPOJ0pys3tOjK4fjJ6-4" target="JWnPOJ0pys3tOjK4fjJ6-8">
          <mxGeometry relative="1" as="geometry">
            <Array as="points">
              <mxPoint x="425" y="320" />
              <mxPoint x="640" y="320" />
            </Array>
          </mxGeometry>
        </mxCell>
        <mxCell id="JWnPOJ0pys3tOjK4fjJ6-4" value="&lt;font style=&quot;&quot;&gt;&lt;span style=&quot;font-size: 18px;&quot;&gt;ZONE 2&lt;/span&gt;&lt;br&gt;&lt;font style=&quot;font-size: 15px;&quot;&gt;Production&lt;/font&gt;&lt;/font&gt;" style="rounded=0;whiteSpace=wrap;html=1;fillColor=#d5e8d4;strokeColor=#82b366;strokeWidth=1;" vertex="1" parent="1">
          <mxGeometry x="365" y="220" width="120" height="80" as="geometry" />
        </mxCell>
        <mxCell id="JWnPOJ0pys3tOjK4fjJ6-5" value="&lt;font style=&quot;&quot;&gt;&lt;span style=&quot;font-size: 18px;&quot;&gt;ZONE 3&lt;/span&gt;&lt;br&gt;&lt;span style=&quot;font-size: 15px;&quot;&gt;Storage&lt;/span&gt;&lt;/font&gt;" style="rounded=0;whiteSpace=wrap;html=1;fillColor=#d5e8d4;strokeColor=#82b366;" vertex="1" parent="1">
          <mxGeometry x="580" y="220" width="120" height="80" as="geometry" />
        </mxCell>
        <mxCell id="JWnPOJ0pys3tOjK4fjJ6-6" value="&lt;font style=&quot;&quot;&gt;&lt;span style=&quot;font-size: 18px;&quot;&gt;AREA 1&lt;/span&gt;&lt;br&gt;&lt;span style=&quot;font-size: 15px;&quot;&gt;Infeed&lt;/span&gt;&lt;/font&gt;" style="rounded=0;whiteSpace=wrap;html=1;fillColor=#ffe6cc;strokeColor=#d79b00;" vertex="1" parent="1">
          <mxGeometry x="140" y="360" width="120" height="80" as="geometry" />
        </mxCell>
        <mxCell id="JWnPOJ0pys3tOjK4fjJ6-29" value="" style="edgeStyle=orthogonalEdgeStyle;rounded=0;orthogonalLoop=1;jettySize=auto;html=1;strokeWidth=3;" edge="1" parent="1" source="JWnPOJ0pys3tOjK4fjJ6-7" target="JWnPOJ0pys3tOjK4fjJ6-12">
          <mxGeometry relative="1" as="geometry" />
        </mxCell>
        <mxCell id="JWnPOJ0pys3tOjK4fjJ6-30" style="edgeStyle=orthogonalEdgeStyle;rounded=0;orthogonalLoop=1;jettySize=auto;html=1;strokeWidth=3;" edge="1" parent="1" source="JWnPOJ0pys3tOjK4fjJ6-7" target="JWnPOJ0pys3tOjK4fjJ6-11">
          <mxGeometry relative="1" as="geometry">
            <Array as="points">
              <mxPoint x="425" y="470" />
              <mxPoint x="200" y="470" />
            </Array>
          </mxGeometry>
        </mxCell>
        <mxCell id="JWnPOJ0pys3tOjK4fjJ6-31" style="edgeStyle=orthogonalEdgeStyle;rounded=0;orthogonalLoop=1;jettySize=auto;html=1;entryX=0.5;entryY=0;entryDx=0;entryDy=0;strokeWidth=3;" edge="1" parent="1" source="JWnPOJ0pys3tOjK4fjJ6-7" target="JWnPOJ0pys3tOjK4fjJ6-13">
          <mxGeometry relative="1" as="geometry">
            <Array as="points">
              <mxPoint x="425" y="470" />
              <mxPoint x="640" y="470" />
            </Array>
          </mxGeometry>
        </mxCell>
        <mxCell id="JWnPOJ0pys3tOjK4fjJ6-7" value="&lt;font style=&quot;&quot;&gt;&lt;span style=&quot;font-size: 18px;&quot;&gt;AREA 2&lt;/span&gt;&lt;br&gt;&lt;span style=&quot;font-size: 15px;&quot;&gt;Process&lt;/span&gt;&lt;/font&gt;" style="rounded=0;whiteSpace=wrap;html=1;fillColor=#ffe6cc;strokeColor=#d79b00;" vertex="1" parent="1">
          <mxGeometry x="365" y="360" width="120" height="80" as="geometry" />
        </mxCell>
        <mxCell id="JWnPOJ0pys3tOjK4fjJ6-8" value="&lt;font style=&quot;&quot;&gt;&lt;span style=&quot;font-size: 18px;&quot;&gt;AREA 3&lt;/span&gt;&lt;br&gt;&lt;span style=&quot;font-size: 15px;&quot;&gt;Outfeed&lt;/span&gt;&lt;/font&gt;" style="rounded=0;whiteSpace=wrap;html=1;fillColor=#ffe6cc;strokeColor=#d79b00;" vertex="1" parent="1">
          <mxGeometry x="580" y="360" width="120" height="80" as="geometry" />
        </mxCell>
        <mxCell id="JWnPOJ0pys3tOjK4fjJ6-10" value="&lt;font style=&quot;&quot;&gt;&lt;span style=&quot;font-size: 18px;&quot;&gt;Equipment 1&amp;nbsp;&lt;br&gt;&lt;/span&gt;&lt;span style=&quot;font-size: 15px;&quot;&gt;Tipper&lt;/span&gt;&lt;/font&gt;" style="rounded=0;whiteSpace=wrap;html=1;fillColor=#f8cecc;strokeColor=#b85450;" vertex="1" parent="1">
          <mxGeometry x="140" y="660" width="120" height="80" as="geometry" />
        </mxCell>
        <mxCell id="JWnPOJ0pys3tOjK4fjJ6-11" value="&lt;font style=&quot;&quot;&gt;&lt;span style=&quot;font-size: 18px;&quot;&gt;Line 1&lt;/span&gt;&lt;br&gt;&lt;span style=&quot;font-size: 15px;&quot;&gt;Equipments&lt;/span&gt;&lt;/font&gt;" style="rounded=0;whiteSpace=wrap;html=1;fillColor=#fff2cc;strokeColor=#d6b656;" vertex="1" parent="1">
          <mxGeometry x="140" y="510" width="120" height="80" as="geometry" />
        </mxCell>
        <mxCell id="JWnPOJ0pys3tOjK4fjJ6-32" style="edgeStyle=orthogonalEdgeStyle;rounded=0;orthogonalLoop=1;jettySize=auto;html=1;strokeWidth=3;" edge="1" parent="1" source="JWnPOJ0pys3tOjK4fjJ6-12" target="JWnPOJ0pys3tOjK4fjJ6-10">
          <mxGeometry relative="1" as="geometry">
            <Array as="points">
              <mxPoint x="425" y="610" />
              <mxPoint x="200" y="610" />
            </Array>
          </mxGeometry>
        </mxCell>
        <mxCell id="JWnPOJ0pys3tOjK4fjJ6-33" style="edgeStyle=orthogonalEdgeStyle;rounded=0;orthogonalLoop=1;jettySize=auto;html=1;strokeWidth=3;" edge="1" parent="1" source="JWnPOJ0pys3tOjK4fjJ6-12" target="JWnPOJ0pys3tOjK4fjJ6-14">
          <mxGeometry relative="1" as="geometry">
            <Array as="points">
              <mxPoint x="425" y="610" />
              <mxPoint x="350" y="610" />
            </Array>
          </mxGeometry>
        </mxCell>
        <mxCell id="JWnPOJ0pys3tOjK4fjJ6-34" style="edgeStyle=orthogonalEdgeStyle;rounded=0;orthogonalLoop=1;jettySize=auto;html=1;entryX=0.5;entryY=0;entryDx=0;entryDy=0;strokeWidth=3;" edge="1" parent="1" source="JWnPOJ0pys3tOjK4fjJ6-12" target="JWnPOJ0pys3tOjK4fjJ6-15">
          <mxGeometry relative="1" as="geometry">
            <Array as="points">
              <mxPoint x="425" y="610" />
              <mxPoint x="490" y="610" />
            </Array>
          </mxGeometry>
        </mxCell>
        <mxCell id="JWnPOJ0pys3tOjK4fjJ6-36" style="edgeStyle=orthogonalEdgeStyle;rounded=0;orthogonalLoop=1;jettySize=auto;html=1;entryX=0.5;entryY=0;entryDx=0;entryDy=0;strokeWidth=3;" edge="1" parent="1" source="JWnPOJ0pys3tOjK4fjJ6-12" target="JWnPOJ0pys3tOjK4fjJ6-16">
          <mxGeometry relative="1" as="geometry">
            <Array as="points">
              <mxPoint x="425" y="610" />
              <mxPoint x="640" y="610" />
            </Array>
          </mxGeometry>
        </mxCell>
        <mxCell id="JWnPOJ0pys3tOjK4fjJ6-12" value="&lt;font style=&quot;&quot;&gt;&lt;span style=&quot;font-size: 18px;&quot;&gt;Line 2&lt;/span&gt;&lt;br&gt;&lt;span style=&quot;font-size: 15px;&quot;&gt;Equipments&lt;/span&gt;&lt;/font&gt;" style="rounded=0;whiteSpace=wrap;html=1;fillColor=#fff2cc;strokeColor=#d6b656;" vertex="1" parent="1">
          <mxGeometry x="365" y="510" width="120" height="80" as="geometry" />
        </mxCell>
        <mxCell id="JWnPOJ0pys3tOjK4fjJ6-13" value="&lt;font style=&quot;&quot;&gt;&lt;span style=&quot;font-size: 18px;&quot;&gt;Line 3&lt;/span&gt;&lt;br&gt;&lt;span style=&quot;font-size: 15px;&quot;&gt;Equipments&lt;/span&gt;&lt;/font&gt;" style="rounded=0;whiteSpace=wrap;html=1;fillColor=#fff2cc;strokeColor=#d6b656;" vertex="1" parent="1">
          <mxGeometry x="580" y="510" width="120" height="80" as="geometry" />
        </mxCell>
        <mxCell id="JWnPOJ0pys3tOjK4fjJ6-14" value="&lt;font style=&quot;&quot;&gt;&lt;span style=&quot;font-size: 18px;&quot;&gt;Equipment 2&amp;nbsp;&lt;br&gt;&lt;/span&gt;&lt;span style=&quot;font-size: 15px;&quot;&gt;Splitter&lt;/span&gt;&lt;/font&gt;" style="rounded=0;whiteSpace=wrap;html=1;fillColor=#f8cecc;strokeColor=#b85450;" vertex="1" parent="1">
          <mxGeometry x="290" y="660" width="120" height="80" as="geometry" />
        </mxCell>
        <mxCell id="JWnPOJ0pys3tOjK4fjJ6-37" style="edgeStyle=orthogonalEdgeStyle;rounded=0;orthogonalLoop=1;jettySize=auto;html=1;strokeWidth=3;" edge="1" parent="1" source="JWnPOJ0pys3tOjK4fjJ6-15" target="JWnPOJ0pys3tOjK4fjJ6-17">
          <mxGeometry relative="1" as="geometry">
            <Array as="points">
              <mxPoint x="490" y="770" />
              <mxPoint x="280" y="770" />
            </Array>
          </mxGeometry>
        </mxCell>
        <mxCell id="JWnPOJ0pys3tOjK4fjJ6-38" style="edgeStyle=orthogonalEdgeStyle;rounded=0;orthogonalLoop=1;jettySize=auto;html=1;entryX=0.5;entryY=0;entryDx=0;entryDy=0;strokeWidth=3;" edge="1" parent="1" source="JWnPOJ0pys3tOjK4fjJ6-15" target="JWnPOJ0pys3tOjK4fjJ6-18">
          <mxGeometry relative="1" as="geometry">
            <Array as="points">
              <mxPoint x="490" y="770" />
              <mxPoint x="570" y="770" />
            </Array>
          </mxGeometry>
        </mxCell>
        <mxCell id="JWnPOJ0pys3tOjK4fjJ6-15" value="&lt;font style=&quot;&quot;&gt;&lt;span style=&quot;font-size: 18px;&quot;&gt;Equipment 3&amp;nbsp;&lt;br&gt;&lt;/span&gt;&lt;span style=&quot;font-size: 15px;&quot;&gt;Singulator&lt;/span&gt;&lt;/font&gt;" style="rounded=0;whiteSpace=wrap;html=1;fillColor=#f8cecc;strokeColor=#b85450;" vertex="1" parent="1">
          <mxGeometry x="430" y="660" width="120" height="80" as="geometry" />
        </mxCell>
        <mxCell id="JWnPOJ0pys3tOjK4fjJ6-16" value="&lt;font style=&quot;&quot;&gt;&lt;span style=&quot;font-size: 18px;&quot;&gt;Equipment 4&amp;nbsp;&lt;br&gt;&lt;/span&gt;&lt;span style=&quot;font-size: 15px;&quot;&gt;Recirculation&lt;/span&gt;&lt;/font&gt;" style="rounded=0;whiteSpace=wrap;html=1;fillColor=#f8cecc;strokeColor=#b85450;" vertex="1" parent="1">
          <mxGeometry x="580" y="660" width="120" height="80" as="geometry" />
        </mxCell>
        <mxCell id="JWnPOJ0pys3tOjK4fjJ6-39" style="edgeStyle=orthogonalEdgeStyle;rounded=0;orthogonalLoop=1;jettySize=auto;html=1;entryX=0.5;entryY=0;entryDx=0;entryDy=0;strokeWidth=3;" edge="1" parent="1" source="JWnPOJ0pys3tOjK4fjJ6-17" target="JWnPOJ0pys3tOjK4fjJ6-19">
          <mxGeometry relative="1" as="geometry">
            <mxPoint x="270" y="920" as="targetPoint" />
          </mxGeometry>
        </mxCell>
        <mxCell id="JWnPOJ0pys3tOjK4fjJ6-17" value="&lt;font style=&quot;&quot;&gt;&lt;span style=&quot;font-size: 18px;&quot;&gt;Unit 1&amp;nbsp;&lt;br&gt;&lt;/span&gt;&lt;span style=&quot;font-size: 15px;&quot;&gt;Control Cabinet&lt;/span&gt;&lt;/font&gt;" style="rounded=0;whiteSpace=wrap;html=1;fillColor=#e1d5e7;strokeColor=#9673a6;" vertex="1" parent="1">
          <mxGeometry x="220" y="820" width="120" height="80" as="geometry" />
        </mxCell>
        <mxCell id="JWnPOJ0pys3tOjK4fjJ6-41" style="edgeStyle=orthogonalEdgeStyle;rounded=0;orthogonalLoop=1;jettySize=auto;html=1;entryX=0.5;entryY=0;entryDx=0;entryDy=0;strokeWidth=3;" edge="1" parent="1" source="JWnPOJ0pys3tOjK4fjJ6-18" target="JWnPOJ0pys3tOjK4fjJ6-21">
          <mxGeometry relative="1" as="geometry" />
        </mxCell>
        <mxCell id="JWnPOJ0pys3tOjK4fjJ6-42" style="edgeStyle=orthogonalEdgeStyle;rounded=0;orthogonalLoop=1;jettySize=auto;html=1;strokeWidth=3;" edge="1" parent="1" source="JWnPOJ0pys3tOjK4fjJ6-18" target="JWnPOJ0pys3tOjK4fjJ6-22">
          <mxGeometry relative="1" as="geometry" />
        </mxCell>
        <mxCell id="JWnPOJ0pys3tOjK4fjJ6-18" value="&lt;font style=&quot;&quot;&gt;&lt;span style=&quot;font-size: 18px;&quot;&gt;Unit 2&amp;nbsp;&lt;br&gt;&lt;/span&gt;&lt;span style=&quot;font-size: 15px;&quot;&gt;Field Devices&lt;/span&gt;&lt;/font&gt;" style="rounded=0;whiteSpace=wrap;html=1;fillColor=#e1d5e7;strokeColor=#9673a6;" vertex="1" parent="1">
          <mxGeometry x="510" y="820" width="120" height="80" as="geometry" />
        </mxCell>
        <mxCell id="JWnPOJ0pys3tOjK4fjJ6-19" value="&lt;font style=&quot;&quot;&gt;&lt;span style=&quot;font-size: 18px;&quot;&gt;Cell 1&amp;nbsp;&lt;br&gt;&lt;/span&gt;&lt;span style=&quot;font-size: 15px;&quot;&gt;PLC&lt;/span&gt;&lt;/font&gt;" style="rounded=0;whiteSpace=wrap;html=1;fillColor=#6d8764;strokeColor=#3A5431;fontColor=#ffffff;" vertex="1" parent="1">
          <mxGeometry x="140" y="960" width="120" height="80" as="geometry" />
        </mxCell>
        <mxCell id="JWnPOJ0pys3tOjK4fjJ6-20" value="&lt;font style=&quot;&quot;&gt;&lt;span style=&quot;font-size: 18px;&quot;&gt;Cell 2&amp;nbsp;&lt;br&gt;&lt;/span&gt;&lt;span style=&quot;font-size: 15px;&quot;&gt;UPS&lt;/span&gt;&lt;/font&gt;" style="rounded=0;whiteSpace=wrap;html=1;fillColor=#6d8764;strokeColor=#3A5431;fontColor=#ffffff;" vertex="1" parent="1">
          <mxGeometry x="290" y="960" width="120" height="80" as="geometry" />
        </mxCell>
        <mxCell id="JWnPOJ0pys3tOjK4fjJ6-21" value="&lt;font style=&quot;&quot;&gt;&lt;span style=&quot;font-size: 18px;&quot;&gt;Cell 1&amp;nbsp;&lt;br&gt;&lt;/span&gt;&lt;span style=&quot;font-size: 15px;&quot;&gt;Motor 1&lt;/span&gt;&lt;/font&gt;" style="rounded=0;whiteSpace=wrap;html=1;fillColor=#6d8764;strokeColor=#3A5431;fontColor=#ffffff;" vertex="1" parent="1">
          <mxGeometry x="440" y="960" width="120" height="80" as="geometry" />
        </mxCell>
        <mxCell id="JWnPOJ0pys3tOjK4fjJ6-22" value="&lt;font style=&quot;&quot;&gt;&lt;span style=&quot;font-size: 18px;&quot;&gt;Cell 2&amp;nbsp;&lt;br&gt;&lt;/span&gt;&lt;span style=&quot;font-size: 15px;&quot;&gt;Photocell 1&lt;/span&gt;&lt;/font&gt;" style="rounded=0;whiteSpace=wrap;html=1;fillColor=#6d8764;strokeColor=#3A5431;fontColor=#ffffff;" vertex="1" parent="1">
          <mxGeometry x="590" y="960" width="120" height="80" as="geometry" />
        </mxCell>
        <mxCell id="JWnPOJ0pys3tOjK4fjJ6-24" style="edgeStyle=orthogonalEdgeStyle;rounded=0;orthogonalLoop=1;jettySize=auto;html=1;entryX=0.5;entryY=0;entryDx=0;entryDy=0;strokeWidth=3;" edge="1" parent="1" source="JWnPOJ0pys3tOjK4fjJ6-1" target="JWnPOJ0pys3tOjK4fjJ6-2">
          <mxGeometry relative="1" as="geometry">
            <Array as="points">
              <mxPoint x="425" y="160" />
              <mxPoint x="200" y="160" />
            </Array>
          </mxGeometry>
        </mxCell>
        <mxCell id="JWnPOJ0pys3tOjK4fjJ6-40" style="edgeStyle=orthogonalEdgeStyle;rounded=0;orthogonalLoop=1;jettySize=auto;html=1;entryX=0.541;entryY=-0.01;entryDx=0;entryDy=0;entryPerimeter=0;strokeWidth=3;" edge="1" parent="1" source="JWnPOJ0pys3tOjK4fjJ6-17" target="JWnPOJ0pys3tOjK4fjJ6-20">
          <mxGeometry relative="1" as="geometry" />
        </mxCell>
      </root>
    </mxGraphModel>
  </diagram>
</mxfile>
